
<svg width="124" height="120" viewBox="0 0 124 120" fill="none" xmlns="http://www.w3.org/2000/svg">
<path d="M18.0041 17.4684C30.0068 5.82279 44.7144 0 62.1268 0C79.5392 0 94.2468 5.82279 106.249 17.4684C118.083 29.1139 124 43.2911 124 60C124 76.7089 118.083 90.8861 106.249 102.532C94.2468 114.177 79.5392 120 62.1268 120C44.7144 120 30.0068 114.177 18.0041 102.532C6.00136 90.8861 0 76.7089 0 60C0 43.2911 6.00136 29.1139 18.0041 17.4684ZM62.1268 108.101C76.1581 108.101 87.8228 103.46 97.1207 94.1772C106.588 84.7257 111.321 73.3333 111.321 60C111.321 46.4979 106.588 35.0211 97.1207 25.5696C87.8228 16.2869 76.1581 11.6456 62.1268 11.6456C47.9264 11.6456 36.1772 16.2869 26.8793 25.5696C17.4124 35.0211 12.6789 46.4979 12.6789 60C12.6789 73.3333 17.4124 84.7257 26.8793 94.1772C36.1772 103.46 47.9264 108.101 62.1268 108.101ZM86.2168 72.1519L86.9775 81.519C87.1466 85.2321 88.1609 88.5232 90.0204 91.3924H78.6094C77.0879 89.3671 76.2427 86.076 76.0736 81.519L75.5665 74.9367C75.2284 71.3924 74.3831 68.9451 73.0307 67.5949C71.8473 66.2447 69.7342 65.5696 66.6912 65.5696H49.1943V91.3924H38.0368V27.0886H65.4233C72.5235 27.0886 78.0177 28.692 81.9059 31.8987C85.9632 34.9367 87.9918 39.3249 87.9918 45.0633C87.9918 52.4895 84.8643 57.5527 78.6094 60.2532C83.1738 61.9409 85.7096 65.9072 86.2168 72.1519ZM49.1943 55.443H66.4376C73.1997 55.443 76.5808 52.4051 76.5808 46.3291C76.5808 40.2532 72.8616 37.2152 65.4233 37.2152H49.1943V55.443Z" fill="#FCF237"/>
</svg>
